<!-- Generator: Adobe Illustrator 21.0.0, SVG Export Plug-In  -->
<svg version="1.1"
	 xmlns="http://www.w3.org/2000/svg" xmlns:xlink="http://www.w3.org/1999/xlink" xmlns:a="http://ns.adobe.com/AdobeSVGViewerExtensions/3.0/"
	 x="0px" y="0px" width="200px" height="200px" viewBox="0 0 200 200" style="enable-background:new 0 0 200 200;"
	 xml:space="preserve">
<style type="text/css">
	.st0{fill:#404B56;}
</style>
<defs>
</defs>
<path class="st0" d="M100,200C44.8,200,0,155.2,0,100S44.8,0,100,0s100,44.8,100,100S155.2,200,100,200z M100,14.3
	c-47.3,0-85.7,38.4-85.7,85.7s38.4,85.7,85.7,85.7s85.7-38.4,85.7-85.7S147.3,14.3,100,14.3z M125.6,97.9
	c-2.1,2.1-5.9,5.8-11.4,10.8c-1.5,1.4-2.7,2.7-3.6,3.8c-0.9,1.1-1.6,2.1-2,3c-0.4,0.9-0.8,1.8-1,2.7c-0.2,0.9-0.6,2.5-1.1,4.7
	c-0.8,4.8-3.5,7.2-7.9,7.2c-2.3,0-4.3-0.8-5.8-2.4c-1.6-1.6-2.4-3.9-2.4-7c0-3.9,0.6-7.2,1.7-10.1c1.2-2.8,2.7-5.3,4.6-7.5
	c1.9-2.1,4.5-4.7,7.7-7.6c2.8-2.6,4.9-4.5,6.2-5.8s2.3-2.8,3.2-4.4c0.9-1.6,1.3-3.4,1.3-5.3c0-3.7-1.3-6.8-4-9.3
	c-2.6-2.5-6.1-3.8-10.2-3.8c-4.9,0-8.5,1.3-10.8,3.8c-2.3,2.6-4.3,6.3-5.9,11.3c-1.5,5.2-4.4,7.8-8.6,7.8c-2.5,0-4.6-0.9-6.3-2.7
	c-1.7-1.8-2.6-3.8-2.6-5.9c0-4.4,1.4-8.8,4.1-13.3c2.7-4.5,6.7-8.2,11.9-11.2c5.2-3,11.3-4.4,18.2-4.4c6.4,0,12.1,1.2,17.1,3.7
	s8.7,5.8,11.4,10.1c2.7,4.2,4,8.9,4,13.8c0,3.9-0.8,7.4-2.3,10.3C129.5,93.3,127.7,95.8,125.6,97.9z M99.2,136.5c2.8,0,5.2,1,7.1,3
	c1.9,2,2.9,4.4,2.9,7.3c0,3.2-1,5.8-3,7.6c-2,1.8-4.3,2.8-6.9,2.8c-2.7,0-5.1-0.9-7.1-2.7c-2-1.8-3-4.4-3-7.6c0-2.9,1-5.3,2.9-7.3
	C94,137.4,96.4,136.5,99.2,136.5z"/>
</svg>
