<?xml version="1.0" standalone="no"?><!DOCTYPE svg PUBLIC "-//W3C//DTD SVG 1.1//EN" "http://www.w3.org/Graphics/SVG/1.1/DTD/svg11.dtd"><svg t="1497194969813" class="icon" style="" viewBox="0 0 1024 1024" version="1.1" xmlns="http://www.w3.org/2000/svg" p-id="3458" xmlns:xlink="http://www.w3.org/1999/xlink" width="200" height="200"><defs><style type="text/css">.st0{fill:#404B56;}
</style></defs><path class="st0" d="M599.360162 495.976048 860.505857 234.831376c24.869411-24.87248 24.869411-62.180178 0-87.049588-24.873504-24.87248-62.177108-24.87248-87.049588 0L512.31262 408.927483 251.166925 141.563156c-24.87248-18.653849-68.39574-18.653849-93.269243 0-18.653849 24.87248-18.653849 68.39574 0 93.26822l267.364327 261.144672L164.117336 757.12072c-24.873504 24.873504-24.873504 62.178131 0 87.049588 24.868387 24.869411 62.177108 24.869411 87.049588 0l261.145695-261.144672 261.143649 261.144672c24.873504 24.869411 62.177108 24.869411 87.049588 0 24.869411-24.87248 24.869411-62.177108 0-87.049588L599.360162 495.976048 599.360162 495.976048zM599.360162 495.976048" p-id="3459"></path></svg>