<?xml version="1.0" encoding="utf-8"?>
<!-- Generator: Adobe Illustrator 21.0.0, SVG Export Plug-In . SVG Version: 6.00 Build 0)  -->
<svg version="1.1" id="图层_1" xmlns="http://www.w3.org/2000/svg" xmlns:xlink="http://www.w3.org/1999/xlink" x="0px" y="0px"
	 viewBox="0 0 200 200" style="enable-background:new 0 0 200 200;" xml:space="preserve">
<style type="text/css">
	.st0{fill:#3388FF;}
</style>
<path class="st0" d="M117.1,96.9l51-51c4.9-4.9,4.9-12.1,0-17c-4.9-4.9-12.1-4.9-17,0l-51,51l-51-52.2c-4.9-3.6-13.4-3.6-18.2,0
	c-3.6,4.9-3.6,13.4,0,18.2l52.2,51l-51,51c-4.9,4.9-4.9,12.1,0,17c4.9,4.9,12.1,4.9,17,0l51-51l51,51c4.9,4.9,12.1,4.9,17,0
	c4.9-4.9,4.9-12.1,0-17L117.1,96.9L117.1,96.9z"/>
</svg>
