<?xml version="1.0" encoding="utf-8"?>
<!-- Generator: Adobe Illustrator 21.0.0, SVG Export Plug-In . SVG Version: 6.00 Build 0)  -->
<svg version="1.1" id="图层_1" xmlns="http://www.w3.org/2000/svg" xmlns:xlink="http://www.w3.org/1999/xlink" x="0px" y="0px"
	 viewBox="0 0 200 200" style="enable-background:new 0 0 200 200;" xml:space="preserve">
<style type="text/css">
	.st0{fill:#00BF00;}
</style>
<path class="st0" d="M149.9,77.6l-56.2,56.2c-2.6,2.6-6.6,3-9.6,1.2c-0.5-0.3-1.1-0.8-1.6-1.2l-32.4-32.4c-3.1-3.1-3.1-8.1,0-11.2
	c3.1-3.1,8.1-3.1,11.1,0l26.8,26.8l50.7-50.7c3.1-3.1,8.1-3.1,11.1,0C152.9,69.6,152.9,74.6,149.9,77.6L149.9,77.6z M100,13.2
	c-48,0-87,39-87,87s39,87,87,87s87-39,87-87S148,13.2,100,13.2z"/>
</svg>
