<?xml version="1.0" encoding="utf-8"?>
<!-- Generator: Adobe Illustrator 21.0.0, SVG Export Plug-In . SVG Version: 6.00 Build 0)  -->
<svg version="1.1" id="图层_1" xmlns="http://www.w3.org/2000/svg" xmlns:xlink="http://www.w3.org/1999/xlink" x="0px" y="0px"
	 viewBox="0 0 200 200" style="enable-background:new 0 0 200 200;" xml:space="preserve">
<style type="text/css">
	.st0{fill:#FFFFFF;}
</style>
<path class="st0" d="M100,12.7c-48.1,0-87.3,39.1-87.3,87.3s39.1,87.3,87.3,87.3s87.3-39.1,87.3-87.3S148.1,12.7,100,12.7z
	 M100,180.3c-44.3,0-80.3-36-80.3-80.3s36-80.3,80.3-80.3s80.3,36,80.3,80.3S144.3,180.3,100,180.3z"/>
<path class="st0" d="M127.9,76.3L91,113.2L72.2,94.4c-2.7-2.7-7.1-2.7-9.9,0c-2.7,2.7-2.7,7.1,0,9.9L86,128c1.4,1.4,3.1,2,4.9,2
	s3.6-0.7,4.9-2l41.9-41.9c2.7-2.7,2.7-7.1,0-9.9C135.1,73.5,130.6,73.5,127.9,76.3z"/>
</svg>
