<?xml version="1.0" encoding="utf-8"?>
<!-- Generator: Adobe Illustrator 21.0.0, SVG Export Plug-In . SVG Version: 6.00 Build 0)  -->
<svg version="1.1" id="图层_1" xmlns="http://www.w3.org/2000/svg" xmlns:xlink="http://www.w3.org/1999/xlink" x="0px" y="0px"
	 viewBox="0 0 200 200" style="enable-background:new 0 0 200 200;" xml:space="preserve">
<style type="text/css">
	.st0{fill:#FFFFFF;}
</style>
<path class="st0" d="M100,12.7c-48.1,0-87.3,39.1-87.3,87.3s39.1,87.3,87.3,87.3s87.3-39.1,87.3-87.3S148.1,12.7,100,12.7z
	 M100,180.3c-44.3,0-80.3-36-80.3-80.3s36-80.3,80.3-80.3s80.3,36,80.3,80.3S144.3,180.3,100,180.3z"/>
<path class="st0" d="M129.8,138L62,70.2c-2.3-2.3-2.3-6,0-8.2l0,0c2.3-2.3,6-2.3,8.2,0l67.8,67.8c2.3,2.3,2.3,6,0,8.2l0,0
	C135.8,140.3,132.1,140.3,129.8,138z"/>
<path class="st0" d="M62,129.8L129.8,62c2.3-2.3,6-2.3,8.2,0l0,0c2.3,2.3,2.3,6,0,8.2L70.2,138c-2.3,2.3-6,2.3-8.2,0l0,0
	C59.7,135.8,59.7,132.1,62,129.8z"/>
</svg>
