<?xml version="1.0" encoding="utf-8"?>
<!-- Generator: Adobe Illustrator 21.0.0, SVG Export Plug-In . SVG Version: 6.00 Build 0)  -->
<svg version="1.1" id="图层_1" xmlns="http://www.w3.org/2000/svg" xmlns:xlink="http://www.w3.org/1999/xlink" x="0px" y="0px"
	 viewBox="0 0 100.5 383" style="enable-background:new 0 0 100.5 383;" xml:space="preserve">
<style type="text/css">
	.st0{fill:#343E8B;}
	.st1{fill:#A1B7FF;}
</style>
<polygon class="st0" points="100.5,325.5 0,383 0,0 100.5,57.5 "/>
<g>
	<path class="st1" d="M28.8,195.1c-1.7-1.7-1.7-4.5,0-6.2l29.3-29.3c2.2-2.2,2.2-5.7,0-7.8c-2.2-2.2-5.7-2.2-7.8,0l-32.4,32.4h0
		l-1.7,1.7c-3.4,3.4-3.4,8.9,0,12.3l1.7,1.7l0,0l32.4,32.4c2.2,2.2,5.7,2.2,7.8,0c2.2-2.2,2.2-5.7,0-7.8L28.8,195.1z"/>
	<path class="st1" d="M55.9,194.1c-1.7-1.7-1.7-4.5,0-6.2l29.3-29.3c2.2-2.2,2.2-5.7,0-7.8c-2.2-2.2-5.7-2.2-7.8,0L45,183.1h0
		l-1.7,1.7c-3.4,3.4-3.4,8.9,0,12.3l1.7,1.7l0,0l32.4,32.4c2.2,2.2,5.7,2.2,7.8,0c2.2-2.2,2.2-5.7,0-7.8L55.9,194.1z"/>
</g>
</svg>
