<?xml version="1.0" encoding="utf-8"?>
<!-- Generator: Adobe Illustrator 21.0.0, SVG Export Plug-In . SVG Version: 6.00 Build 0)  -->
<svg version="1.1" id="图层_1" xmlns="http://www.w3.org/2000/svg" xmlns:xlink="http://www.w3.org/1999/xlink" x="0px" y="0px"
	 viewBox="0 0 200 200" style="enable-background:new 0 0 200 200;" xml:space="preserve">
<style type="text/css">
	.st0{fill:#DAE1EF;}
</style>
<path class="st0" d="M59.7,91.4c-11.6,0-21-9.4-21-21s9.4-21,21-21s21,9.4,21,21S71.3,91.4,59.7,91.4z M59.7,55.7
	c-8.1,0-14.7,6.6-14.7,14.7s6.6,14.7,14.7,14.7s14.7-6.6,14.7-14.7S67.8,55.7,59.7,55.7z"/>
<path class="st0" d="M164.9,176.4H34.7c-12.3,0-22.3-10.4-22.3-23.2V46.5c0-12.8,10-23.2,22.3-23.2h130.2
	c12.3,0,22.3,10.4,22.3,23.2v106.7C187.2,166,177.2,176.4,164.9,176.4z M34.7,29.6c-8.8,0-15.9,7.6-15.9,16.9v106.7
	c0,9.3,7.1,16.9,15.9,16.9h130.2c8.8,0,16-7.6,16-16.9V46.5c0-9.3-7.1-16.9-16-16.9H34.7z"/>
<path class="st0" d="M18.1,162.1c-0.8,0-1.6-0.3-2.2-0.9c-1.2-1.2-1.2-3.2,0-4.5L53,119.5c4.2-4.2,9.8-6.5,15.8-6.5
	s11.6,2.3,15.8,6.5l20.2,20.2c1.2,1.2,1.2,3.2,0,4.5c-1.2,1.3-3.2,1.2-4.5,0L80.2,124c-3-3-7.1-4.7-11.3-4.7s-8.3,1.7-11.3,4.7
	l-37.2,37.2C19.7,161.8,18.9,162.1,18.1,162.1z"/>
<path class="st0" d="M89.7,130.5c-0.8,0-1.6-0.3-2.2-0.9c-1.2-1.2-1.2-3.2,0-4.5L128,84.5c4.6-4.6,10.6-7.1,17.1-7.1
	s12.5,2.5,17.1,7.1l22.1,22.1c1.2,1.2,1.2,3.2,0,4.5c-1.2,1.2-3.2,1.2-4.5,0L157.7,89c-3.4-3.4-7.8-5.2-12.6-5.2
	c-4.7,0-9.2,1.9-12.6,5.2l-40.6,40.6C91.3,130.2,90.5,130.5,89.7,130.5L89.7,130.5z"/>
</svg>
