<?xml version="1.0" encoding="utf-8"?>
<!-- Generator: Adobe Illustrator 21.0.0, SVG Export Plug-In . SVG Version: 6.00 Build 0)  -->
<svg version="1.1" id="图层_1" xmlns="http://www.w3.org/2000/svg" xmlns:xlink="http://www.w3.org/1999/xlink" x="0px" y="0px"
	 viewBox="0 0 200 200" style="enable-background:new 0 0 200 200;" xml:space="preserve">
<style type="text/css">
	.st0{fill:#404B56;}
</style>
<path class="st0" d="M177.9,186.9c0,6.9-5.6,12.5-12.5,12.5H9.4l21.9-103c0-6.9,5.6-12.5,12.5-12.5h143.6c6.9,0,12.5,5.6,12.5,12.5
	L177.9,186.9L177.9,186.9L177.9,186.9z M34.3,74.5h140.5V62.3c0-6.9-5.6-12.5-12.5-12.5H87.4V38.5c0-6.9-5.6-12.5-12.5-12.5l-62.4,0
	C5.6,26,0,31.6,0,38.5v148.4L21.8,87C21.8,80.1,27.4,74.5,34.3,74.5L34.3,74.5L34.3,74.5z"/>
</svg>
