<?xml version="1.0" encoding="utf-8"?>
<!-- Generator: Adobe Illustrator 21.0.0, SVG Export Plug-In . SVG Version: 6.00 Build 0)  -->
<svg version="1.1" id="图层_1" xmlns="http://www.w3.org/2000/svg" xmlns:xlink="http://www.w3.org/1999/xlink" x="0px" y="0px"
	 viewBox="0 0 200 200" style="enable-background:new 0 0 200 200;" xml:space="preserve">
<style type="text/css">
	.st0{fill:#404B56;}
</style>
<path class="st0" d="M162.3,0H37.7C16.9,0,0,16.9,0,37.7v124.7C0,183.1,16.9,200,37.7,200h124.7c20.8,0,37.7-16.9,37.7-37.7V37.7
	C200,16.9,183.1,0,162.3,0L162.3,0z M177.3,162.3c0,8.3-6.7,15-15,15H37.7c-8.3,0-15-6.7-15-15V37.7c0-8.3,6.7-15,15-15h124.7
	c8.3,0,15,6.7,15,15L177.3,162.3L177.3,162.3z M45.6,88.7h108.7v22.7H45.6V88.7L45.6,88.7z M88.7,153.8V45.1h22.7v108.7L88.7,153.8
	L88.7,153.8z"/>
</svg>
