<?xml version="1.0" encoding="utf-8"?>
<!-- Generator: Adobe Illustrator 21.0.0, SVG Export Plug-In . SVG Version: 6.00 Build 0)  -->
<svg version="1.1" id="图层_1" xmlns="http://www.w3.org/2000/svg" xmlns:xlink="http://www.w3.org/1999/xlink" x="0px" y="0px"
	 viewBox="0 0 64 64" style="enable-background:new 0 0 64 64;" xml:space="preserve">
<style type="text/css">
	.st0{fill:#3388FF;}
	.st1{fill:#FFFFFF;}
</style>
<g>
	<path class="st0" d="M52,64H12C5.4,64,0,58.6,0,52V12C0,5.4,5.4,0,12,0h40c6.6,0,12,5.4,12,12v40C64,58.6,58.6,64,52,64z"/>
</g>
<path class="st1" d="M10.9,27l-0.5,0.5C8.8,29.3,9,32,10.8,33.6l13.2,11.7c3.1,2.8,7.9,2.5,10.7-0.6l18.7-20.6
	c1.6-1.7,1.5-4.4-0.1-6l0,0c-1.8-1.8-4.7-1.7-6.3,0.2L31.3,36.1c-0.9,1-2.4,1.1-3.4,0.2L17,26.6C15.2,25,12.5,25.2,10.9,27z"/>
</svg>
