<?xml version="1.0" encoding="utf-8"?>
<!-- Generator: Adobe Illustrator 21.0.0, SVG Export Plug-In . SVG Version: 6.00 Build 0)  -->
<svg version="1.1" id="图层_1" xmlns="http://www.w3.org/2000/svg" xmlns:xlink="http://www.w3.org/1999/xlink" x="0px" y="0px"
	 viewBox="0 0 64 64" style="enable-background:new 0 0 64 64;" xml:space="preserve">
<style type="text/css">
	.st0{fill:#00BF00;}
	.st1{fill:#FFFFFF;}
</style>
<path class="st0" d="M34.1,0.1c-19.3-1.2-35.2,14.7-34,34C1.1,50,14,62.9,29.9,63.9c19.3,1.2,35.2-14.7,34-34
	C62.9,14,50,1.1,34.1,0.1z"/>
<g>
	<path class="st1" d="M24.8,44.2l-9.3-9.3c-1.4-1.4-1.4-3.6,0-4.9l0,0c1.4-1.4,3.6-1.4,4.9,0l6.5,6.5c0.6,0.6,1.6,0.6,2.2,0l15-15
		c1.4-1.4,3.6-1.4,4.9,0l0,0c1.4,1.4,1.4,3.6,0,4.9L31.2,44.2C29.4,46,26.6,46,24.8,44.2z"/>
</g>
</svg>
