<?xml version="1.0" encoding="utf-8"?>
<!-- Generator: Adobe Illustrator 21.0.0, SVG Export Plug-In . SVG Version: 6.00 Build 0)  -->
<svg version="1.1" id="图层_1" xmlns="http://www.w3.org/2000/svg" xmlns:xlink="http://www.w3.org/1999/xlink" x="0px" y="0px"
	 viewBox="0 0 64 64" style="enable-background:new 0 0 64 64;" xml:space="preserve">
<style type="text/css">
	.st0{fill:#FF2E4C;}
	.st1{fill:#FFFFFF;}
</style>
<path class="st0" d="M34.1,0.1c-19.3-1.2-35.2,14.7-34,34C1.1,50,14,62.9,29.9,63.9c19.3,1.2,35.2-14.7,34-34
	C62.9,14,50,1.1,34.1,0.1z"/>
<path class="st1" d="M41.9,46.1l-24-24c-1.2-1.2-1.2-3.1,0-4.2l0,0c1.2-1.2,3.1-1.2,4.2,0l24,24c1.2,1.2,1.2,3.1,0,4.2l0,0
	C45,47.3,43.1,47.3,41.9,46.1z"/>
<path class="st1" d="M17.9,41.9l24-24c1.2-1.2,3.1-1.2,4.2,0l0,0c1.2,1.2,1.2,3.1,0,4.2l-24,24c-1.2,1.2-3.1,1.2-4.2,0l0,0
	C16.7,45,16.7,43.1,17.9,41.9z"/>
</svg>
